<svg width="24" height="24" viewBox="0 0 24 24" fill="none" xmlns="http://www.w3.org/2000/svg">
<path d="M7.3125 18.8719L4.22809 21.4594C4.11887 21.5498 3.98621 21.6074 3.84549 21.6254C3.70486 21.6435 3.56195 21.6213 3.43341 21.5614C3.30478 21.5016 3.19583 21.4065 3.11911 21.2872C3.04248 21.1679 3.0011 21.0293 3 20.8875V6C3 5.80108 3.07901 5.61033 3.21964 5.46968C3.36035 5.32901 3.55106 5.25 3.75 5.25H20.25C20.4489 5.25 20.6396 5.32901 20.7804 5.46968C20.921 5.61033 21 5.80108 21 6V18C21 18.1989 20.921 18.3897 20.7804 18.5303C20.6396 18.671 20.4489 18.75 20.25 18.75H7.65939L7.3125 18.8719Z" fill="#1C1C1C" fill-opacity="0.1"/>
<path fill-rule="evenodd" clip-rule="evenodd" d="M4.70628 22.0372L7.73664 19.5041L7.73726 19.5036L7.74149 19.5H20.25C20.25 19.5 20.8713 19.5 21.3107 19.0607C21.3107 19.0607 21.75 18.6213 21.75 18V6C21.75 6 21.75 5.37868 21.3107 4.93934C21.3107 4.93934 20.8713 4.5 20.25 4.5H3.75C3.75 4.5 3.12868 4.5 2.68934 4.93934C2.68934 4.93934 2.25 5.37868 2.25 6V20.8875C2.25 20.8875 2.25346 21.3276 2.48831 21.6929C2.48831 21.6929 2.72316 22.0581 3.11678 22.2414C3.11678 22.2414 3.51041 22.4247 3.94108 22.3693C3.94108 22.3693 4.37175 22.314 4.70628 22.0372ZM7.73419 18C7.73419 18 7.18635 18.0001 6.7711 18.3561L3.75 20.8815V6H20.25V18H7.73419Z" fill="#1C1C1C"/>
</svg>
