<svg width="33" height="32" viewBox="0 0 33 32" fill="none" xmlns="http://www.w3.org/2000/svg">
<path fill-rule="evenodd" clip-rule="evenodd" d="M21.5 19H9.80354L5.12852 22.7778C4.69896 23.1249 4.06933 23.0581 3.72221 22.6285C3.57843 22.4506 3.5 22.2288 3.5 22V6C3.5 6 3.5 5.17157 4.08579 4.58579C4.08579 4.58579 4.67157 4 5.5 4H21.5C21.5 4 22.3284 4 22.9142 4.58579C22.9142 4.58579 23.5 5.17157 23.5 6V17C23.5 17 23.5 17.8284 22.9142 18.4142C22.9142 18.4142 22.3284 19 21.5 19ZM21.5 17V6H5.5V19.9062L8.82148 17.2222C8.9994 17.0784 9.22124 17 9.45 17H21.5Z" fill="#1C1C1C"/>
<path d="M27.5 10H22.5C21.9477 10 21.5 10.4477 21.5 11C21.5 11.5523 21.9477 12 22.5 12H27.5V25.9062L24.1785 23.2222C24.0006 23.0784 23.7788 23 23.55 23H11.5V18C11.5 17.4477 11.0523 17 10.5 17C9.94772 17 9.5 17.4477 9.5 18V23C9.5 23.8284 10.0858 24.4142 10.0858 24.4142C10.6716 25 11.5 25 11.5 25H23.1965L27.8715 28.7778C28.0494 28.9216 28.2712 29 28.5 29C29.0523 29 29.5 28.5523 29.5 28V12C29.5 11.1716 28.9142 10.5858 28.9142 10.5858C28.3284 10 27.5 10 27.5 10Z" fill="#1C1C1C"/>
</svg>
