<svg width="24" height="24" viewBox="0 0 24 24" fill="none" xmlns="http://www.w3.org/2000/svg">
<mask id="mask0_2_329" style="mask-type:luminance" maskUnits="userSpaceOnUse" x="2" y="3" width="21" height="20">
<path fill-rule="evenodd" clip-rule="evenodd" d="M2 3.00009H22.4725V22.5011H2V3.00009Z" fill="white"/>
</mask>
<g mask="url(#mask0_2_329)">
<path fill-rule="evenodd" clip-rule="evenodd" d="M3.82371 12.1232C5.22571 16.4852 10.7647 20.0122 12.2367 20.8852C13.7137 20.0032 19.2927 16.4372 20.6497 12.1272C21.5407 9.34118 20.7137 5.81218 17.4277 4.75318C15.8357 4.24218 13.9787 4.55318 12.6967 5.54518C12.4287 5.75118 12.0567 5.75518 11.7867 5.55118C10.4287 4.53018 8.65471 4.23118 7.03771 4.75318C3.75671 5.81118 2.93271 9.34018 3.82371 12.1232M12.2377 22.5012C12.1137 22.5012 11.9907 22.4712 11.8787 22.4102C11.5657 22.2392 4.19271 18.1752 2.39571 12.5812C2.39471 12.5812 2.39471 12.5802 2.39471 12.5802C1.26671 9.05818 2.52271 4.63218 6.57771 3.32518C8.48171 2.70918 10.5567 2.98018 12.2347 4.03918C13.8607 3.01118 16.0207 2.72718 17.8867 3.32518C21.9457 4.63418 23.2057 9.05918 22.0787 12.5802C20.3397 18.1102 12.9127 22.2352 12.5977 22.4082C12.4857 22.4702 12.3617 22.5012 12.2377 22.5012" fill="white"/>
</g>
<path fill-rule="evenodd" clip-rule="evenodd" d="M18.1537 10.6251C17.7667 10.6251 17.4387 10.3281 17.4067 9.93608C17.3407 9.11408 16.7907 8.42008 16.0077 8.16708C15.6127 8.03908 15.3967 7.61608 15.5237 7.22308C15.6527 6.82908 16.0717 6.61508 16.4677 6.73908C17.8307 7.18008 18.7857 8.38708 18.9027 9.81408C18.9357 10.2271 18.6287 10.5891 18.2157 10.6221C18.1947 10.6241 18.1747 10.6251 18.1537 10.6251" fill="white"/>
</svg>
