<svg width="24" height="24" viewBox="0 0 24 24" fill="none" xmlns="http://www.w3.org/2000/svg">
<path d="M5 12.0002H5.01H5ZM12 12.0002H12.01H12ZM19 12.0002H19.01H19ZM6 12.0002C6 12.2654 5.89464 12.5198 5.70711 12.7073C5.51957 12.8948 5.26522 13.0002 5 13.0002C4.73478 13.0002 4.48043 12.8948 4.29289 12.7073C4.10536 12.5198 4 12.2654 4 12.0002C4 11.735 4.10536 11.4806 4.29289 11.2931C4.48043 11.1055 4.73478 11.0002 5 11.0002C5.26522 11.0002 5.51957 11.1055 5.70711 11.2931C5.89464 11.4806 6 11.735 6 12.0002V12.0002ZM13 12.0002C13 12.2654 12.8946 12.5198 12.7071 12.7073C12.5196 12.8948 12.2652 13.0002 12 13.0002C11.7348 13.0002 11.4804 12.8948 11.2929 12.7073C11.1054 12.5198 11 12.2654 11 12.0002C11 11.735 11.1054 11.4806 11.2929 11.2931C11.4804 11.1055 11.7348 11.0002 12 11.0002C12.2652 11.0002 12.5196 11.1055 12.7071 11.2931C12.8946 11.4806 13 11.735 13 12.0002V12.0002ZM20 12.0002C20 12.2654 19.8946 12.5198 19.7071 12.7073C19.5196 12.8948 19.2652 13.0002 19 13.0002C18.7348 13.0002 18.4804 12.8948 18.2929 12.7073C18.1054 12.5198 18 12.2654 18 12.0002C18 11.735 18.1054 11.4806 18.2929 11.2931C18.4804 11.1055 18.7348 11.0002 19 11.0002C19.2652 11.0002 19.5196 11.1055 19.7071 11.2931C19.8946 11.4806 20 11.735 20 12.0002V12.0002Z" stroke="white" stroke-width="1.5" stroke-linecap="round" stroke-linejoin="round"/>
</svg>
