<svg width="24" height="24" viewBox="0 0 24 24" fill="none" xmlns="http://www.w3.org/2000/svg">
<path opacity="0.4" d="M11.97 22.0001C17.4928 22.0001 21.97 17.5229 21.97 12.0001C21.97 6.47722 17.4928 2.00007 11.97 2.00007C6.44715 2.00007 1.97 6.47722 1.97 12.0001C1.97 17.5229 6.44715 22.0001 11.97 22.0001Z" fill="white"/>
<path d="M14.97 10.2301L12.07 8.56007C11.35 8.14007 10.48 8.14007 9.75999 8.56007C9.03999 8.98007 8.60999 9.72007 8.60999 10.5601V13.9101C8.60999 14.7401 9.03999 15.4901 9.75999 15.9101C10.12 16.1201 10.52 16.2201 10.91 16.2201C11.31 16.2201 11.7 16.1201 12.06 15.9101L14.96 14.2401C15.68 13.8201 16.11 13.0801 16.11 12.2401C16.13 11.4001 15.7 10.6501 14.97 10.2301Z" fill="white"/>
</svg>
