<svg width="24" height="24" viewBox="0 0 24 24" fill="none" xmlns="http://www.w3.org/2000/svg">
<mask id="mask0_2_303" style="mask-type:luminance" maskUnits="userSpaceOnUse" x="2" y="3" width="21" height="20">
<path fill-rule="evenodd" clip-rule="evenodd" d="M2 2.99997H22.4725V22.501H2V2.99997Z" fill="white"/>
</mask>
<g mask="url(#mask0_2_303)">
<path fill-rule="evenodd" clip-rule="evenodd" d="M3.82371 12.1231C5.22571 16.4851 10.7647 20.0121 12.2367 20.8851C13.7137 20.0031 19.2927 16.4371 20.6497 12.1271C21.5407 9.34107 20.7137 5.81207 17.4277 4.75307C15.8357 4.24207 13.9787 4.55307 12.6967 5.54507C12.4287 5.75107 12.0567 5.75507 11.7867 5.55107C10.4287 4.53007 8.65471 4.23107 7.03771 4.75307C3.75671 5.81107 2.93271 9.34007 3.82371 12.1231M12.2377 22.5011C12.1137 22.5011 11.9907 22.4711 11.8787 22.4101C11.5657 22.2391 4.19271 18.1751 2.39571 12.5811C2.39471 12.5811 2.39471 12.5801 2.39471 12.5801C1.26671 9.05807 2.52271 4.63207 6.57771 3.32507C8.48171 2.70907 10.5567 2.98007 12.2347 4.03907C13.8607 3.01107 16.0207 2.72707 17.8867 3.32507C21.9457 4.63407 23.2057 9.05907 22.0787 12.5801C20.3397 18.1101 12.9127 22.2351 12.5977 22.4081C12.4857 22.4701 12.3617 22.5011 12.2377 22.5011" fill="white"/>
</g>
<path fill-rule="evenodd" clip-rule="evenodd" d="M18.1537 10.625C17.7667 10.625 17.4387 10.328 17.4067 9.93597C17.3407 9.11397 16.7907 8.41997 16.0077 8.16697C15.6127 8.03897 15.3967 7.61597 15.5237 7.22297C15.6527 6.82897 16.0717 6.61497 16.4677 6.73897C17.8307 7.17997 18.7857 8.38697 18.9027 9.81397C18.9357 10.227 18.6287 10.589 18.2157 10.622C18.1947 10.624 18.1747 10.625 18.1537 10.625" fill="white"/>
</svg>
