<svg width="24" height="24" viewBox="0 0 24 24" fill="none" xmlns="http://www.w3.org/2000/svg">
<g opacity="0.72">
<path d="M7.88007 11.37C7.47417 11.2372 7.14945 11.0114 6.9059 10.6926C6.66236 10.3472 6.52706 9.97533 6.5 9.57685C6.5 9.17837 6.60824 8.79317 6.82472 8.42125C7.06827 8.02277 7.43358 7.6907 7.92066 7.42505C8.70541 7 9.38192 6.89374 9.95018 7.10626C10.5455 7.31879 10.9785 7.63757 11.2491 8.06262C11.3844 8.27514 11.4791 8.56736 11.5332 8.93928C11.6144 9.28463 11.6415 9.66983 11.6144 10.0949C11.6144 10.4934 11.5738 10.8918 11.4926 11.2903C11.4114 11.6888 11.2897 12.0209 11.1273 12.2865C10.992 12.4991 10.8296 12.7116 10.6402 12.9241C10.4779 13.1101 10.2749 13.296 10.0314 13.482C9.81488 13.6679 9.55781 13.8406 9.26015 14L7.79889 13.8805C7.98831 13.6679 8.16421 13.482 8.32657 13.3226C8.48893 13.1366 8.62423 12.9772 8.73247 12.8444C8.84071 12.7116 8.94895 12.592 9.0572 12.4858C9.21956 12.2998 9.35486 12.1139 9.4631 11.9279C9.57134 11.7685 9.66605 11.6091 9.74723 11.4497C9.82841 11.2638 9.84194 11.0778 9.78782 10.8918C9.57134 11.1044 9.35486 11.2505 9.13838 11.3302C8.92189 11.4099 8.71894 11.4497 8.52952 11.4497C8.31304 11.4763 8.09656 11.4497 7.88007 11.37ZM13.4815 11.1309C13.1027 10.945 12.8186 10.6793 12.6292 10.334C12.4668 9.96205 12.4127 9.57685 12.4668 9.17837C12.5209 8.77989 12.6833 8.40797 12.9539 8.06262C13.2245 7.71727 13.6304 7.45161 14.1716 7.26565C15.0105 6.97343 15.7005 6.98672 16.2417 7.3055C16.7829 7.62429 17.1617 8.00949 17.3782 8.4611C17.4594 8.70019 17.5 9.00569 17.5 9.37761C17.5 9.74953 17.4594 10.1347 17.3782 10.5332C17.297 10.9317 17.1753 11.3169 17.0129 11.6888C16.8776 12.0607 16.7153 12.3662 16.5258 12.6053C16.3635 12.7913 16.174 12.9639 15.9576 13.1233C15.7681 13.2562 15.5381 13.4023 15.2675 13.5617C15.024 13.7211 14.7399 13.8539 14.4151 13.9602L12.9945 13.6414C13.2109 13.4554 13.4004 13.296 13.5627 13.1632C13.7522 13.0038 13.9145 12.871 14.0498 12.7647C14.1851 12.6584 14.3204 12.5655 14.4557 12.4858C14.6451 12.3264 14.8075 12.167 14.9428 12.0076C15.0781 11.8748 15.1863 11.7287 15.2675 11.5693C15.3758 11.3833 15.4299 11.1841 15.4299 10.9715C15.2134 11.1575 14.9834 11.277 14.7399 11.3302C14.5234 11.3567 14.3204 11.3567 14.131 11.3302C13.9145 11.3036 13.698 11.2372 13.4815 11.1309Z" fill="white"/>
<path d="M17 18.43H13L8.54999 21.39C7.88999 21.83 7 21.36 7 20.56V18.43C4 18.43 2 16.43 2 13.43V7.42999C2 4.42999 4 2.42999 7 2.42999H17C20 2.42999 22 4.42999 22 7.42999V13.43C22 16.43 20 18.43 17 18.43Z" stroke="white" stroke-width="1.5" stroke-miterlimit="10" stroke-linecap="round" stroke-linejoin="round"/>
</g>
</svg>
