<svg width="24" height="24" viewBox="0 0 24 24" fill="none" xmlns="http://www.w3.org/2000/svg">
<path opacity="0.4" d="M12 22.0001C17.5228 22.0001 22 17.5229 22 12.0001C22 6.47722 17.5228 2.00007 12 2.00007C6.47715 2.00007 2 6.47722 2 12.0001C2 17.5229 6.47715 22.0001 12 22.0001Z" fill="white"/>
<path d="M15.71 15.9301C15.58 15.9301 15.45 15.9001 15.33 15.8201L12.23 13.9701C11.46 13.5101 10.89 12.5001 10.89 11.6101V7.51007C10.89 7.10007 11.23 6.76007 11.64 6.76007C12.05 6.76007 12.39 7.10007 12.39 7.51007V11.6101C12.39 11.9701 12.69 12.5001 13 12.6801L16.1 14.5301C16.46 14.7401 16.57 15.2001 16.36 15.5601C16.21 15.8001 15.96 15.9301 15.71 15.9301Z" fill="white"/>
</svg>
