<svg width="24" height="24" viewBox="0 0 24 24" fill="none" xmlns="http://www.w3.org/2000/svg">
<path opacity="0.4" d="M12 22.0002C17.5228 22.0002 22 17.523 22 12.0002C22 6.47734 17.5228 2.00018 12 2.00018C6.47715 2.00018 2 6.47734 2 12.0002C2 17.523 6.47715 22.0002 12 22.0002Z" fill="white"/>
<path d="M15.71 15.9302C15.58 15.9302 15.45 15.9002 15.33 15.8202L12.23 13.9702C11.46 13.5102 10.89 12.5002 10.89 11.6102V7.51019C10.89 7.10019 11.23 6.76019 11.64 6.76019C12.05 6.76019 12.39 7.10019 12.39 7.51019V11.6102C12.39 11.9702 12.69 12.5002 13 12.6802L16.1 14.5302C16.46 14.7402 16.57 15.2002 16.36 15.5602C16.21 15.8002 15.96 15.9302 15.71 15.9302Z" fill="white"/>
</svg>
