<svg width="24" height="24" viewBox="0 0 24 24" fill="none" xmlns="http://www.w3.org/2000/svg">
<path opacity="0.4" d="M2.75 18.6501C2.34 18.6501 2 18.3101 2 17.9001V12.2001C1.95 9.49012 2.96 6.93013 4.84 5.01013C6.72 3.10013 9.24 2.05013 11.95 2.05013C17.49 2.05013 22 6.56013 22 12.1001V17.8001C22 18.2101 21.66 18.5501 21.25 18.5501C20.84 18.5501 20.5 18.2101 20.5 17.8001V12.1001C20.5 7.39013 16.67 3.55013 11.95 3.55013C9.64 3.55013 7.5 4.44013 5.91 6.06013C4.31 7.69013 3.46 9.86013 3.5 12.1801V17.8901C3.5 18.3101 3.17 18.6501 2.75 18.6501Z" fill="white"/>
<path d="M5.94 12.4501H5.81C3.71 12.4501 2 14.1601 2 16.2601V18.1401C2 20.2401 3.71 21.9501 5.81 21.9501H5.94C8.04 21.9501 9.75 20.2401 9.75 18.1401V16.2601C9.75 14.1601 8.04 12.4501 5.94 12.4501Z" fill="white"/>
<path d="M18.19 12.4501H18.06C15.96 12.4501 14.25 14.1601 14.25 16.2601V18.1401C14.25 20.2401 15.96 21.9501 18.06 21.9501H18.19C20.29 21.9501 22 20.2401 22 18.1401V16.2601C22 14.1601 20.29 12.4501 18.19 12.4501Z" fill="white"/>
</svg>
