<svg width="24" height="24" viewBox="0 0 24 24" fill="none" xmlns="http://www.w3.org/2000/svg">
<path d="M5 12.0001H5.01H5ZM12 12.0001H12.01H12ZM19 12.0001H19.01H19ZM6 12.0001C6 12.2653 5.89464 12.5197 5.70711 12.7072C5.51957 12.8948 5.26522 13.0001 5 13.0001C4.73478 13.0001 4.48043 12.8948 4.29289 12.7072C4.10536 12.5197 4 12.2653 4 12.0001C4 11.7349 4.10536 11.4806 4.29289 11.293C4.48043 11.1055 4.73478 11.0001 5 11.0001C5.26522 11.0001 5.51957 11.1055 5.70711 11.293C5.89464 11.4806 6 11.7349 6 12.0001V12.0001ZM13 12.0001C13 12.2653 12.8946 12.5197 12.7071 12.7072C12.5196 12.8948 12.2652 13.0001 12 13.0001C11.7348 13.0001 11.4804 12.8948 11.2929 12.7072C11.1054 12.5197 11 12.2653 11 12.0001C11 11.7349 11.1054 11.4806 11.2929 11.293C11.4804 11.1055 11.7348 11.0001 12 11.0001C12.2652 11.0001 12.5196 11.1055 12.7071 11.293C12.8946 11.4806 13 11.7349 13 12.0001V12.0001ZM20 12.0001C20 12.2653 19.8946 12.5197 19.7071 12.7072C19.5196 12.8948 19.2652 13.0001 19 13.0001C18.7348 13.0001 18.4804 12.8948 18.2929 12.7072C18.1054 12.5197 18 12.2653 18 12.0001C18 11.7349 18.1054 11.4806 18.2929 11.293C18.4804 11.1055 18.7348 11.0001 19 11.0001C19.2652 11.0001 19.5196 11.1055 19.7071 11.293C19.8946 11.4806 20 11.7349 20 12.0001V12.0001Z" stroke="white" stroke-width="1.5" stroke-linecap="round" stroke-linejoin="round"/>
</svg>
