<svg width="24" height="24" viewBox="0 0 24 24" fill="none" xmlns="http://www.w3.org/2000/svg">
<path opacity="0.4" d="M2.75 18.6502C2.34 18.6502 2 18.3102 2 17.9002V12.2002C1.95 9.49017 2.96 6.93017 4.84 5.01017C6.72 3.10017 9.24 2.05017 11.95 2.05017C17.49 2.05017 22 6.56017 22 12.1002V17.8002C22 18.2102 21.66 18.5502 21.25 18.5502C20.84 18.5502 20.5 18.2102 20.5 17.8002V12.1002C20.5 7.39017 16.67 3.55017 11.95 3.55017C9.64 3.55017 7.5 4.44017 5.91 6.06017C4.31 7.69017 3.46 9.86017 3.5 12.1802V17.8902C3.5 18.3102 3.17 18.6502 2.75 18.6502Z" fill="white"/>
<path d="M5.94 12.4502H5.81C3.71 12.4502 2 14.1602 2 16.2602V18.1402C2 20.2402 3.71 21.9502 5.81 21.9502H5.94C8.04 21.9502 9.75 20.2402 9.75 18.1402V16.2602C9.75 14.1602 8.04 12.4502 5.94 12.4502Z" fill="white"/>
<path d="M18.19 12.4502H18.06C15.96 12.4502 14.25 14.1602 14.25 16.2602V18.1402C14.25 20.2402 15.96 21.9502 18.06 21.9502H18.19C20.29 21.9502 22 20.2402 22 18.1402V16.2602C22 14.1602 20.29 12.4502 18.19 12.4502Z" fill="white"/>
</svg>
