<svg width="24" height="24" viewBox="0 0 24 24" fill="none" xmlns="http://www.w3.org/2000/svg">
<path d="M3.91 17.18C3.72 17.18 3.53 17.11 3.38 16.96C2.01 15.58 1.25 13.76 1.25 11.83C1.25 7.81999 4.5 4.55999 8.5 4.55999L14.57 4.57999L13.48 3.53999C13.18 3.24999 13.17 2.77999 13.46 2.47999C13.75 2.17999 14.22 2.16999 14.52 2.45999L16.96 4.79999C17.18 5.00999 17.25 5.33999 17.14 5.61999C17.03 5.89999 16.75 6.08999 16.44 6.08999L8.5 6.06999C5.33 6.06999 2.75 8.65999 2.75 11.84C2.75 13.37 3.35 14.82 4.44 15.91C4.73 16.2 4.73 16.68 4.44 16.97C4.29 17.11 4.1 17.18 3.91 17.18Z" fill="white"/>
<path d="M10 21.75C9.81 21.75 9.63 21.68 9.48 21.54L7.04 19.2C6.82 18.99 6.75 18.66 6.86 18.38C6.98 18.1 7.26 17.95 7.56 17.91L15.51 17.93C18.68 17.93 21.26 15.34 21.26 12.16C21.26 10.63 20.66 9.18 19.57 8.09C19.28 7.8 19.28 7.32 19.57 7.03C19.86 6.74 20.34 6.74 20.63 7.03C22 8.41 22.76 10.23 22.76 12.16C22.76 16.17 19.51 19.43 15.51 19.43L9.44 19.41L10.53 20.45C10.83 20.74 10.84 21.21 10.55 21.51C10.39 21.67 10.2 21.75 10 21.75Z" fill="white"/>
</svg>
