<svg width="32" height="32" viewBox="0 0 32 32" fill="none" xmlns="http://www.w3.org/2000/svg">
<path fill-rule="evenodd" clip-rule="evenodd" d="M12.8022 28.7378C12.8022 28.7378 14.1202 29.4331 15.359 29.8446C15.359 29.8446 16 30.0752 16.641 29.8446C16.641 29.8446 17.8799 29.4331 19.1978 28.7378C19.1978 28.7378 21.3166 27.62 22.999 26.0718C22.999 26.0718 28 21.4695 28 14.3375V7C28 7 28 6.17157 27.4142 5.58579C27.4142 5.58579 26.8284 5 26 5H6C6 5 5.17157 5 4.58579 5.58579C4.58579 5.58579 4 6.17157 4 7V14.3375C4 14.3375 4 21.4695 9.00096 26.0718C9.00096 26.0718 10.6834 27.62 12.8022 28.7378ZM18.2647 26.9688C18.2647 26.9688 17.087 27.5901 16 27.9501C16 27.9501 14.913 27.5901 13.7353 26.9688C13.7353 26.9688 11.8464 25.9724 10.3553 24.6001C10.3553 24.6001 6 20.592 6 14.3375V7H26V14.3375C26 14.3375 26 20.592 21.6447 24.6001C21.6447 24.6001 20.1536 25.9724 18.2647 26.9688Z" fill="#1C1C1C"/>
<path d="M15 12V17C15 17.5523 15.4477 18 16 18C16.5523 18 17 17.5523 17 17V12C17 11.4477 16.5523 11 16 11C15.4477 11 15 11.4477 15 12Z" fill="#1C1C1C"/>
<path d="M17.5 21.5C17.5 22.3284 16.8284 23 16 23C15.1716 23 14.5 22.3284 14.5 21.5C14.5 20.6716 15.1716 20 16 20C16.8284 20 17.5 20.6716 17.5 21.5Z" fill="#1C1C1C"/>
</svg>
