<svg width="33" height="32" viewBox="0 0 33 32" fill="none" xmlns="http://www.w3.org/2000/svg">
<path fill-rule="evenodd" clip-rule="evenodd" d="M14 6.76308L12.7389 10.1711C12.3844 11.1291 11.6291 11.8844 10.6711 12.2389L7.2631 13.5L10.6711 14.7611C11.6291 15.1156 12.3844 15.8709 12.7389 16.8289L14 20.2369L15.2611 16.8289C15.6156 15.8709 16.3709 15.1156 17.3289 14.7611L20.7369 13.5L17.3289 12.2389C16.3709 11.8844 15.6156 11.1291 15.2611 10.1711L14 6.76308ZM15.4068 4.80176C14.9236 3.49583 13.0765 3.49583 12.5932 4.80176L10.8632 9.477C10.7113 9.88758 10.3876 10.2113 9.97702 10.3632L5.30177 12.0932C3.99584 12.5765 3.99584 14.4235 5.30177 14.9068L9.97702 16.6368C10.3876 16.7887 10.7113 17.1124 10.8632 17.523L12.5932 22.1982C13.0765 23.5042 14.9236 23.5042 15.4068 22.1982L17.1368 17.523C17.2887 17.1124 17.6124 16.7887 18.023 16.6368L22.6983 14.9068C24.0042 14.4235 24.0042 12.5765 22.6983 12.0932L18.023 10.3632C17.6124 10.2113 17.2887 9.88758 17.1368 9.477L15.4068 4.80176Z" fill="#1C1C1C"/>
<path fill-rule="evenodd" clip-rule="evenodd" d="M23.9998 20.3224L23.5405 21.5637C23.2873 22.248 22.7477 22.7875 22.0635 23.0407L20.8221 23.5L22.0635 23.9594C22.7478 24.2126 23.2873 24.7521 23.5405 25.4364L23.9998 26.6777L24.4591 25.4364C24.7124 24.7521 25.2519 24.2126 25.9362 23.9594L27.1775 23.5L25.9362 23.0407C25.2519 22.7875 24.7124 22.248 24.4591 21.5637L23.9998 20.3224ZM24.9377 18.5346C24.6155 17.6639 23.3841 17.6639 23.062 18.5346L22.1337 21.0431C22.0324 21.3168 21.8166 21.5327 21.5429 21.6339L19.0343 22.5622C18.1637 22.8844 18.1637 24.1157 19.0343 24.4379L21.5429 25.3662C21.8166 25.4674 22.0324 25.6833 22.1337 25.957L23.062 28.4655C23.3841 29.3362 24.6155 29.3362 24.9377 28.4655L25.8659 25.957C25.9672 25.6833 26.183 25.4674 26.4567 25.3662L28.9653 24.4379C29.8359 24.1157 29.8359 22.8844 28.9653 22.5622L26.4567 21.6339C26.183 21.5327 25.9672 21.3168 25.8659 21.0431L24.9377 18.5346Z" fill="#1C1C1C"/>
</svg>
