<svg width="24" height="24" viewBox="0 0 24 24" fill="none" xmlns="http://www.w3.org/2000/svg">
<path d="M17.625 12C17.625 15.1066 15.1066 17.625 12 17.625C8.89343 17.625 6.375 15.1066 6.375 12C6.375 8.89343 8.89343 6.375 12 6.375C15.1066 6.375 17.625 8.89343 17.625 12Z" fill="#1C1C1C" fill-opacity="0.1"/>
<path fill-rule="evenodd" clip-rule="evenodd" d="M12 5.625C12 5.625 13.2965 5.625 14.4817 6.12629C14.4817 6.12629 15.6258 6.61023 16.5078 7.49219C16.5078 7.49219 17.3898 8.37416 17.8737 9.51833C17.8737 9.51833 18.375 10.7035 18.375 12C18.375 12 18.375 13.2965 17.8737 14.4817C17.8737 14.4817 17.3898 15.6258 16.5078 16.5078C16.5078 16.5078 15.6258 17.3898 14.4817 17.8737C14.4817 17.8737 13.2965 18.375 12 18.375C12 18.375 10.7035 18.375 9.51833 17.8737C9.51833 17.8737 8.37416 17.3898 7.49219 16.5078C7.49219 16.5078 6.61023 15.6258 6.12629 14.4817C6.12629 14.4817 5.625 13.2965 5.625 12C5.625 12 5.625 10.7035 6.12629 9.51833C6.12629 9.51833 6.61023 8.37416 7.49219 7.49219C7.49219 7.49219 8.37416 6.61023 9.51833 6.12629C9.51833 6.12629 10.7035 5.625 12 5.625ZM12 7.125C12 7.125 9.98071 7.125 8.55285 8.55285C8.55285 8.55285 7.125 9.98071 7.125 12C7.125 12 7.125 14.0193 8.55285 15.4471C8.55285 15.4471 9.98071 16.875 12 16.875C12 16.875 14.0193 16.875 15.4471 15.4471C15.4471 15.4471 16.875 14.0193 16.875 12C16.875 12 16.875 9.98071 15.4471 8.55285C15.4471 8.55285 14.0193 7.125 12 7.125Z" fill="#1C1C1C"/>
<path d="M12.75 3.375V1.5C12.75 1.08579 12.4142 0.75 12 0.75C11.5858 0.75 11.25 1.08579 11.25 1.5V3.375C11.25 3.78921 11.5858 4.125 12 4.125C12.4142 4.125 12.75 3.78921 12.75 3.375Z" fill="#1C1C1C"/>
<path d="M5.10533 4.04468C4.96467 3.90403 4.77391 3.82501 4.575 3.82501C4.37608 3.82501 4.18532 3.90403 4.04467 4.04468C3.90401 4.18533 3.825 4.3761 3.825 4.57501C3.825 4.77392 3.90401 4.96469 4.04467 5.10534L5.36654 6.42722C5.50719 6.56787 5.69796 6.64689 5.89687 6.64689C6.09578 6.64689 6.28655 6.56787 6.4272 6.42722C6.56785 6.28657 6.64687 6.0958 6.64687 5.89689C6.64687 5.69798 6.56785 5.50721 6.4272 5.36656L5.10533 4.04468Z" fill="#1C1C1C"/>
<path d="M3.375 11.25H1.5C1.08579 11.25 0.75 11.5858 0.75 12C0.75 12.4142 1.08579 12.75 1.5 12.75H3.375C3.78921 12.75 4.125 12.4142 4.125 12C4.125 11.5858 3.78921 11.25 3.375 11.25Z" fill="#1C1C1C"/>
<path d="M4.04467 18.8947C3.90401 19.0353 3.825 19.2261 3.825 19.425C3.825 19.438 3.82533 19.4509 3.826 19.4638C3.8356 19.6491 3.9135 19.8242 4.04467 19.9554C4.18532 20.096 4.37608 20.175 4.575 20.175C4.77391 20.175 4.96467 20.096 5.10533 19.9554L6.4272 18.6335C6.56785 18.4928 6.64687 18.3021 6.64687 18.1031C6.64687 17.9042 6.56786 17.7135 6.4272 17.5728C6.28655 17.4322 6.09579 17.3531 5.89687 17.3531C5.88393 17.3531 5.87099 17.3535 5.85807 17.3542C5.67282 17.3638 5.49771 17.4417 5.36654 17.5728L4.04467 18.8947Z" fill="#1C1C1C"/>
<path d="M11.25 20.625V22.5C11.25 22.9142 11.5858 23.25 12 23.25C12.4142 23.25 12.75 22.9142 12.75 22.5V20.625C12.75 20.2108 12.4142 19.875 12 19.875C11.5858 19.875 11.25 20.2108 11.25 20.625Z" fill="#1C1C1C"/>
<path d="M17.5729 18.6336L18.8947 19.9554C19.0353 20.096 19.2261 20.175 19.425 20.175C19.6239 20.175 19.8147 20.096 19.9553 19.9554C20.096 19.8147 20.175 19.6239 20.175 19.425C20.175 19.2261 20.096 19.0353 19.9553 18.8947L18.6335 17.5729C18.4928 17.4322 18.302 17.3531 18.1031 17.3531C17.9042 17.3531 17.7134 17.4322 17.5728 17.5728C17.4321 17.7135 17.3531 17.9042 17.3531 18.1031C17.3531 18.3021 17.4321 18.4928 17.5729 18.6336Z" fill="#1C1C1C"/>
<path d="M20.625 12.75H22.5C22.9142 12.75 23.25 12.4142 23.25 12C23.25 11.5858 22.9142 11.25 22.5 11.25H20.625C20.2108 11.25 19.875 11.5858 19.875 12C19.875 12.4142 20.2108 12.75 20.625 12.75Z" fill="#1C1C1C"/>
<path d="M19.9553 5.10534C20.096 4.96469 20.175 4.77392 20.175 4.57501C20.175 4.3761 20.096 4.18533 19.9553 4.04468C19.8147 3.90403 19.6239 3.82501 19.425 3.82501C19.2261 3.82501 19.0353 3.90403 18.8947 4.04468L17.5729 5.36647C17.4321 5.50721 17.3531 5.69798 17.3531 5.89689C17.3531 6.0958 17.4321 6.28657 17.5728 6.42722C17.7134 6.56787 17.9042 6.64689 18.1031 6.64689C18.302 6.64689 18.4928 6.56787 18.6334 6.42722L19.9553 5.10534Z" fill="#1C1C1C"/>
</svg>
