<svg width="16" height="16" viewBox="0 0 16 16" fill="none" xmlns="http://www.w3.org/2000/svg">
<path d="M7.5 6.5V9C7.5 9.27614 7.72386 9.5 8 9.5C8.27614 9.5 8.5 9.27614 8.5 9V6.5C8.5 6.22386 8.27614 6 8 6C7.72386 6 7.5 6.22386 7.5 6.5Z" fill="#FF4747"/>
<path fill-rule="evenodd" clip-rule="evenodd" d="M6.7048 2.24952C6.7048 2.24952 6.9042 1.90235 7.25068 1.70143C7.25068 1.70143 7.59824 1.49988 8.00002 1.49988C8.00002 1.49988 8.40179 1.49988 8.74936 1.70143C8.74936 1.70143 9.09692 1.90298 9.29648 2.25169L14.7952 11.7495C14.7952 11.7495 14.9961 12.0975 14.9965 12.4987C14.9965 12.4987 14.9969 12.8999 14.7969 13.2477C14.7969 13.2477 14.5969 13.5956 14.2499 13.7971C14.2499 13.7971 13.903 13.9986 13.5018 14L2.50002 14C2.50002 14 2.09704 13.9986 1.75011 13.7971C1.75011 13.7971 1.40318 13.5956 1.20318 13.2477C1.20318 13.2477 1.00319 12.8999 1.00354 12.4987C1.00354 12.4987 1.0039 12.0975 1.20451 11.75L6.70355 2.25169L6.7048 2.24952ZM2.07053 12.25L7.57016 2.75067L7.57144 2.74845L7.57172 2.74796C7.57172 2.74796 7.63765 2.633 7.75233 2.5665C7.75233 2.5665 7.86722 2.49988 8.00002 2.49988C8.00002 2.49988 8.13282 2.49988 8.24771 2.5665C8.24771 2.5665 8.36259 2.63312 8.42856 2.74838L13.9298 12.2506C13.9298 12.2506 13.9964 12.3659 13.9965 12.4996C13.9965 12.4996 13.9966 12.6333 13.9299 12.7493C13.9299 12.7493 13.8633 12.8652 13.7476 12.9324C13.7476 12.9324 13.632 12.9996 13.4983 13L2.50002 13C2.50002 13 2.36804 12.9996 2.2524 12.9324C2.2524 12.9324 2.13675 12.8652 2.07009 12.7493C2.07009 12.7493 2.00342 12.6333 2.00354 12.4996C2.00354 12.4996 2.00366 12.3659 2.07053 12.25Z" fill="#FF4747"/>
<path d="M8.75 11.25C8.75 11.6642 8.41419 12 8 12C7.58582 12 7.25 11.6642 7.25 11.25C7.25 10.8358 7.58582 10.5 8 10.5C8.41419 10.5 8.75 10.8358 8.75 11.25Z" fill="#FF4747"/>
</svg>
